<svg xmlns="http://www.w3.org/2000/svg" viewBox="0 0 400 420" width="400" height="420">
  <defs>
    <linearGradient id="bgV2" x1="0%" y1="0%" x2="100%" y2="100%"><stop offset="0%" style="stop-color:#0f1e35"/><stop offset="100%" style="stop-color:#1a2f4a"/></linearGradient>
    <linearGradient id="bvBody" x1="0%" y1="0%" x2="0%" y2="100%"><stop offset="0%" style="stop-color:#3b82f6"/><stop offset="50%" style="stop-color:#1d4ed8"/><stop offset="100%" style="stop-color:#1e3a8a"/></linearGradient>
  </defs>
  <rect width="400" height="420" fill="url(#bgV2)"/>
  <!-- Gear operator box -->
  <rect x="155" y="30" width="90" height="70" rx="6" fill="#374151" stroke="#6b7280" stroke-width="2"/>
  <rect x="165" y="40" width="70" height="50" rx="4" fill="#1f2937"/>
  <text x="200" y="72" font-family="Arial" font-size="9" fill="#9ca3af" text-anchor="middle">GEAR BOX</text>
  <!-- Stem -->
  <rect x="194" y="100" width="12" height="40" fill="#9ca3af"/>
  <!-- Main body ring -->
  <circle cx="200" cy="230" r="105" fill="url(#bvBody)" stroke="#3b82f6" stroke-width="3"/>
  <circle cx="200" cy="230" r="88" fill="#1e3a8a"/>
  <!-- Disc -->
  <ellipse cx="200" cy="230" rx="30" ry="80" fill="#60a5fa" stroke="#93c5fd" stroke-width="2" transform="rotate(-15,200,230)"/>
  <!-- Shaft -->
  <line x1="200" y1="145" x2="200" y2="315" stroke="#9ca3af" stroke-width="6"/>
  <!-- Bolt holes -->
  <circle cx="115" cy="175" r="7" fill="#1e3a8a" stroke="#60a5fa" stroke-width="2"/>
  <circle cx="115" cy="285" r="7" fill="#1e3a8a" stroke="#60a5fa" stroke-width="2"/>
  <circle cx="285" cy="175" r="7" fill="#1e3a8a" stroke="#60a5fa" stroke-width="2"/>
  <circle cx="285" cy="285" r="7" fill="#1e3a8a" stroke="#60a5fa" stroke-width="2"/>
  <text x="200" y="378" font-family="Arial" font-size="14" font-weight="bold" fill="#c8a96e" text-anchor="middle">BUTTERFLY VALVE</text>
  <text x="200" y="396" font-family="Arial" font-size="10" fill="#aaa" text-anchor="middle">IS:13095 / BS EN | Wafer / Double Flanged</text>
</svg>
