<svg xmlns="http://www.w3.org/2000/svg" viewBox="0 0 600 300" width="600" height="300">
  <defs>
    <linearGradient id="bg5" x1="0%" y1="0%" x2="100%" y2="100%"><stop offset="0%" style="stop-color:#1c1c2e"/><stop offset="100%" style="stop-color:#2a2a3e"/></linearGradient>
    <linearGradient id="ciPipe" x1="0%" y1="0%" x2="0%" y2="100%"><stop offset="0%" style="stop-color:#6b7280"/><stop offset="40%" style="stop-color:#374151"/><stop offset="100%" style="stop-color:#1f2937"/></linearGradient>
  </defs>
  <rect width="600" height="300" fill="url(#bg5)"/>
  <!-- 3 CI pipes stacked -->
  <rect x="30" y="60" width="380" height="55" rx="5" fill="url(#ciPipe)"/>
  <rect x="30" y="63" width="380" height="10" rx="3" fill="rgba(255,255,255,0.07)"/>
  <ellipse cx="30" cy="87" rx="13" ry="27" fill="#374151" stroke="#6b7280" stroke-width="2"/>
  <ellipse cx="410" cy="87" rx="20" ry="34" fill="#4b5563" stroke="#9ca3af" stroke-width="2"/>
  <ellipse cx="410" cy="87" rx="13" ry="20" fill="#374151"/>

  <rect x="30" y="130" width="380" height="55" rx="5" fill="url(#ciPipe)"/>
  <rect x="30" y="133" width="380" height="10" rx="3" fill="rgba(255,255,255,0.07)"/>
  <ellipse cx="30" cy="157" rx="13" ry="27" fill="#374151" stroke="#6b7280" stroke-width="2"/>
  <ellipse cx="410" cy="157" rx="20" ry="34" fill="#4b5563" stroke="#9ca3af" stroke-width="2"/>
  <ellipse cx="410" cy="157" rx="13" ry="20" fill="#374151"/>

  <rect x="30" y="200" width="380" height="55" rx="5" fill="url(#ciPipe)"/>
  <rect x="30" y="203" width="380" height="10" rx="3" fill="rgba(255,255,255,0.07)"/>
  <ellipse cx="30" cy="227" rx="13" ry="27" fill="#374151" stroke="#6b7280" stroke-width="2"/>
  <ellipse cx="410" cy="227" rx="20" ry="34" fill="#4b5563" stroke="#9ca3af" stroke-width="2"/>
  <ellipse cx="410" cy="227" rx="13" ry="20" fill="#374151"/>

  <!-- Info panel -->
  <rect x="440" y="50" width="145" height="190" rx="8" fill="rgba(0,0,0,0.4)"/>
  <text x="512" y="80" font-family="Arial" font-size="13" font-weight="bold" fill="#c8a96e" text-anchor="middle">CAST IRON</text>
  <text x="512" y="98" font-family="Arial" font-size="11" fill="#fff" text-anchor="middle">PIPES</text>
  <line x1="450" y1="110" x2="575" y2="110" stroke="#c8a96e" stroke-width="1" opacity="0.5"/>
  <text x="512" y="130" font-family="Arial" font-size="9.5" fill="#ccc" text-anchor="middle">IS Standards</text>
  <text x="512" y="150" font-family="Arial" font-size="9.5" fill="#ccc" text-anchor="middle">Socket &amp; Flanged</text>
  <text x="512" y="170" font-family="Arial" font-size="9.5" fill="#ccc" text-anchor="middle">Various Sizes</text>
  <text x="512" y="195" font-family="Arial" font-size="9" fill="#c8a96e" text-anchor="middle">Water Supply</text>
  <text x="512" y="210" font-family="Arial" font-size="9" fill="#c8a96e" text-anchor="middle">&amp; Sewerage</text>
</svg>
