<svg xmlns="http://www.w3.org/2000/svg" viewBox="0 0 600 300" width="600" height="300">
  <defs>
    <linearGradient id="bg8" x1="0%" y1="0%" x2="100%" y2="100%"><stop offset="0%" style="stop-color:#0f1923"/><stop offset="100%" style="stop-color:#1a2535"/></linearGradient>
    <linearGradient id="efBlack" x1="0%" y1="0%" x2="0%" y2="100%"><stop offset="0%" style="stop-color:#4b5563"/><stop offset="100%" style="stop-color:#111827"/></linearGradient>
  </defs>
  <rect width="600" height="300" fill="url(#bg8)"/>
  <!-- EF Coupler -->
  <rect x="35" y="105" width="100" height="60" rx="8" fill="url(#efBlack)" stroke="#4b5563" stroke-width="2"/>
  <rect x="25" y="118" width="20" height="34" rx="4" fill="#374151"/>
  <rect x="135" y="118" width="20" height="34" rx="4" fill="#374151"/>
  <!-- EF wire indicator -->
  <rect x="45" y="128" width="80" height="14" rx="3" fill="#1f2937"/>
  <text x="85" y="140" font-family="Arial" font-size="7" fill="#f59e0b" text-anchor="middle">EF COIL</text>
  <!-- Terminal posts -->
  <rect x="60" y="105" width="8" height="10" rx="2" fill="#f59e0b"/>
  <rect x="112" y="105" width="8" height="10" rx="2" fill="#f59e0b"/>
  <text x="85" y="200" font-family="Arial" font-size="9.5" fill="#c8a96e" text-anchor="middle">EF Coupler</text>

  <!-- EF Tee -->
  <rect x="200" y="118" width="110" height="34" rx="5" fill="url(#efBlack)" stroke="#4b5563" stroke-width="2"/>
  <rect x="240" y="78" width="34" height="60" rx="5" fill="url(#efBlack)" stroke="#4b5563" stroke-width="2"/>
  <rect x="200" y="128" width="110" height="14" rx="2" fill="#1f2937"/>
  <rect x="240" y="88" width="34" height="14" rx="2" fill="#1f2937"/>
  <rect x="250" y="78" width="8" height="10" rx="2" fill="#f59e0b"/>
  <text x="255" y="200" font-family="Arial" font-size="9.5" fill="#c8a96e" text-anchor="middle">EF Tee</text>

  <!-- EF Saddle -->
  <path d="M 360,140 Q 380,100 420,100 Q 460,100 480,140" stroke="#4b5563" stroke-width="28" fill="none"/>
  <path d="M 360,140 Q 380,100 420,100 Q 460,100 480,140" stroke="url(#efBlack)" stroke-width="20" fill="none"/>
  <rect x="395" y="80" width="50" height="28" rx="4" fill="url(#efBlack)" stroke="#4b5563" stroke-width="1"/>
  <rect x="400" y="85" width="40" height="10" rx="2" fill="#1f2937"/>
  <rect x="405" y="80" width="8" height="10" rx="2" fill="#f59e0b"/>
  <rect x="427" y="80" width="8" height="10" rx="2" fill="#f59e0b"/>
  <text x="420" y="200" font-family="Arial" font-size="9.5" fill="#c8a96e" text-anchor="middle">EF Saddle</text>

  <text x="300" y="245" font-family="Arial" font-size="14" font-weight="bold" fill="#c8a96e" text-anchor="middle">HDPE ELECTROFUSION FITTINGS</text>
  <text x="300" y="265" font-family="Arial" font-size="10" fill="#aaa" text-anchor="middle">Couplers · Bends · Tees · Saddles · Reducers | PE 80/100</text>
</svg>
