<svg xmlns="http://www.w3.org/2000/svg" viewBox="0 0 400 420" width="400" height="420">
  <defs>
    <linearGradient id="bgV3" x1="0%" y1="0%" x2="100%" y2="100%"><stop offset="0%" style="stop-color:#1a1535"/><stop offset="100%" style="stop-color:#251a45"/></linearGradient>
    <linearGradient id="nrvBody" x1="0%" y1="0%" x2="0%" y2="100%"><stop offset="0%" style="stop-color:#818cf8"/><stop offset="50%" style="stop-color:#4338ca"/><stop offset="100%" style="stop-color:#312e81"/></linearGradient>
  </defs>
  <rect width="400" height="420" fill="url(#bgV3)"/>
  <!-- Cover cap -->
  <ellipse cx="200" cy="130" rx="70" ry="50" fill="url(#nrvBody)" stroke="#818cf8" stroke-width="2"/>
  <ellipse cx="200" cy="125" rx="55" ry="38" fill="#312e81"/>
  <!-- Body -->
  <rect x="100" y="175" width="200" height="130" rx="8" fill="url(#nrvBody)" stroke="#818cf8" stroke-width="2"/>
  <!-- Flapper disc -->
  <line x1="200" y1="175" x2="200" y2="305" stroke="#a5b4fc" stroke-width="4"/>
  <path d="M 200,200 Q 250,240 200,290" fill="#6366f1" stroke="#a5b4fc" stroke-width="2"/>
  <!-- Flow arrow -->
  <defs><marker id="arr" markerWidth="8" markerHeight="8" refX="6" refY="3" orient="auto"><path d="M0,0 L0,6 L8,3 z" fill="#c8a96e"/></marker></defs>
  <line x1="20" y1="240" x2="95" y2="240" stroke="#c8a96e" stroke-width="2.5" marker-end="url(#arr)"/>
  <text x="55" y="225" font-family="Arial" font-size="9" fill="#c8a96e" text-anchor="middle">FLOW</text>
  <!-- Flanges -->
  <rect x="75" y="188" width="28" height="104" rx="3" fill="#4b5563" stroke="#818cf8" stroke-width="1"/>
  <circle cx="83" cy="200" r="4" fill="#1f2937"/><circle cx="83" cy="280" r="4" fill="#1f2937"/>
  <rect x="297" y="188" width="28" height="104" rx="3" fill="#4b5563" stroke="#818cf8" stroke-width="1"/>
  <circle cx="317" cy="200" r="4" fill="#1f2937"/><circle cx="317" cy="280" r="4" fill="#1f2937"/>
  <text x="200" y="358" font-family="Arial" font-size="14" font-weight="bold" fill="#c8a96e" text-anchor="middle">NON RETURN VALVE</text>
  <text x="200" y="376" font-family="Arial" font-size="10" fill="#aaa" text-anchor="middle">IS:14845 / BS EN | CI / DI | Swing Type</text>
</svg>
